Coordinates
version=1
nRows=38
nColumns=34
inDegrees=no

Units are S.I. units (second, meters, Newtons, ...)
If the header above contains a line with 'inDegrees', this indicates whether rotational values are in degrees (yes) or radians (no).

endheader
time	pelvis_tilt	pelvis_list	pelvis_rotation	pelvis_tx	pelvis_ty	pelvis_tz	hip_flexion_r	hip_adduction_r	hip_rotation_r	knee_angle_r	ankle_angle_r	subtalar_angle_r	mtp_angle_r	hip_flexion_l	hip_adduction_l	hip_rotation_l	knee_angle_l	ankle_angle_l	subtalar_angle_l	mtp_angle_l	lumbar_extension	lumbar_bending	lumbar_rotation	arm_flex_r	arm_add_r	arm_rot_r	elbow_flex_r	pro_sup_r	arm_flex_l	arm_add_l	arm_rot_l	elbow_flex_l	pro_sup_l
160.02	0.205466	-0.132687	1.89139	0.663514	0.770056	-0.0111988	0.551825	-0.578363	-0.698132	0.488456	0.223989	-0.165014	0	0.758203	-0.612943	-0.150234	1.29858	0.629813	0.288464	0	0.00365513	0.163088	0.0361813	0.667475	-0.733516	-0.0122512	0.300771	2.09	1.72358	0.0588009	1.0242	1.24413	2.09
160.04	0.216974	-0.132393	1.90435	0.659918	0.769787	-0.00860329	0.533011	-0.563805	-0.698132	0.4549	0.227212	-0.163958	0	0.777935	-0.610679	-0.132783	1.30351	0.628599	0.290718	0	0.00995387	0.17227	0.0403561	0.654805	-0.729151	-0.0145713	0.299823	2.09	1.72007	0.0536059	1.01434	1.25207	2.09
160.06	0.226687	-0.131133	1.9176	0.656292	0.769542	-0.00607813	0.515553	-0.551807	-0.698132	0.426493	0.232486	-0.162875	0	0.795422	-0.607102	-0.116474	1.30838	0.627493	0.293511	0	0.0148762	0.179744	0.0442921	0.642051	-0.724276	-0.0189676	0.298705	2.09	1.71678	0.0489095	1.00495	1.25925	2.09
160.08	0.234306	-0.128829	1.93122	0.652656	0.769312	-0.00363545	0.499789	-0.542775	-0.698132	0.404082	0.24003	-0.161577	0	0.810371	-0.601936	-0.101499	1.31317	0.626475	0.296988	0	0.0183145	0.185183	0.0479759	0.629326	-0.718769	-0.025534	0.297385	2.09	1.71365	0.0448579	0.996036	1.26544	2.09
160.1	0.240182	-0.125858	1.94521	0.649053	0.769066	-0.0012591	0.485721	-0.536301	-0.698132	0.386686	0.249323	-0.159698	0	0.823373	-0.59537	-0.0877085	1.31787	0.625458	0.301106	0	0.020758	0.188832	0.0515006	0.616798	-0.712695	-0.0334649	0.295881	2.09	1.71055	0.0413936	0.987439	1.27073	2.09
160.12	0.244842	-0.122692	1.95948	0.645525	0.768774	0.00107404	0.473228	-0.531715	-0.698132	0.372883	0.259683	-0.156913	0	0.835217	-0.587765	-0.0748937	1.32246	0.624345	0.30577	0	0.0228109	0.191097	0.0549981	0.604644	-0.70618	-0.0417757	0.294203	2.09	1.70738	0.0383636	0.979039	1.27526	2.09
160.14	0.248744	-0.119704	1.97395	0.642106	0.768414	0.00338329	0.462149	-0.52841	-0.698132	0.361488	0.270541	-0.153035	0	0.846552	-0.579461	-0.0628833	1.32694	0.623061	0.31086	0	0.0249408	0.192345	0.0585798	0.59303	-0.699342	-0.0496824	0.292343	2.09	1.70414	0.035583	0.970805	1.2792	2.09
160.16	0.252187	-0.117091	1.98856	0.638817	0.767978	0.00568016	0.452301	-0.526026	-0.698132	0.351758	0.281493	-0.148018	0	0.857752	-0.570678	-0.0515402	1.33131	0.621573	0.316224	0	0.027387	0.192835	0.0623003	0.582107	-0.692262	-0.056733	0.290288	2.09	1.70091	0.0328713	0.962776	1.28264	2.09
160.18	0.255338	-0.114848	2.00329	0.635663	0.767473	0.00796677	0.443407	-0.524354	-0.698132	0.343274	0.292263	-0.14198	0	0.868939	-0.561535	-0.0407124	1.33557	0.619885	0.321695	0	0.0301621	0.192756	0.0661525	0.571995	-0.68499	-0.0627856	0.288035	2.09	1.69777	0.0300817	0.955014	1.28565	2.09
160.2	0.258297	-0.112799	2.0182	0.632639	0.766919	0.0102363	0.435066	-0.523202	-0.698132	0.335739	0.302627	-0.135181	0	0.880058	-0.552113	-0.0301922	1.33971	0.618028	0.32713	0	0.0331147	0.192303	0.0700869	0.562761	-0.677571	-0.0679066	0.285624	2.09	1.69478	0.0271251	0.947546	1.28828	2.09
160.22	0.261086	-0.110698	2.03333	0.629735	0.766341	0.0124758	0.42683	-0.522445	-0.698133	0.328984	0.312441	-0.127862	0	0.89093	-0.542436	-0.0197889	1.34373	0.61605	0.332419	0	0.0360187	0.19162	0.0740272	0.554418	-0.670035	-0.0722302	0.283132	2.09	1.69195	0.0239583	0.940357	1.29057	2.09
160.24	0.263695	-0.108295	2.04877	0.626937	0.765767	0.0146689	0.418257	-0.521956	-0.698133	0.322841	0.321619	-0.120205	0	0.901338	-0.532513	-0.00933628	1.34758	0.613995	0.337513	0	0.0386525	0.190825	0.0779037	0.546902	-0.662423	-0.0758725	0.280688	2.09	1.68925	0.0205901	0.933378	1.29261	2.09
160.26	0.266112	-0.105391	2.06455	0.624235	0.765224	0.0167985	0.408969	-0.521571	-0.698132	0.31711	0.330095	-0.112381	0	0.911091	-0.522385	0.00128092	1.35124	0.6119	0.342427	0	0.0408498	0.190019	0.0816745	0.540103	-0.654771	-0.078871	0.27844	2.09	1.6866	0.0170525	0.926512	1.29446	2.09
160.28	0.268334	-0.101855	2.08066	0.621624	0.764729	0.0188487	0.398701	-0.52109	-0.69813	0.311571	0.337816	-0.104599	0	0.920048	-0.512141	0.0121088	1.35465	0.609792	0.347237	0	0.0425172	0.189287	0.0853293	0.533906	-0.647105	-0.0811741	0.276523	2.09	1.68393	0.0133668	0.919669	1.29623	2.09
160.3	0.270368	-0.0976513	2.09706	0.619104	0.764294	0.0208061	0.387349	-0.520337	-0.698127	0.306051	0.344757	-0.0971171	0	0.928139	-0.501898	0.0231185	1.35777	0.607694	0.352047	0	0.0436403	0.188676	0.0888796	0.528216	-0.639423	-0.0826669	0.275031	2.09	1.68119	0.00951586	0.912811	1.29796	2.09
160.32	0.272223	-0.0928446	2.11367	0.616681	0.763919	0.0226623	0.375	-0.51922	-0.698121	0.300487	0.350949	-0.090201	0	0.935383	-0.491768	0.0342179	1.36057	0.60562	0.356962	0	0.0442882	0.188185	0.0923432	0.52298	-0.631698	-0.083223	0.273998	2.09	1.67837	0.00543565	0.905972	1.29972	2.09
160.34	0.273918	-0.0875878	2.1304	0.614363	0.763596	0.0244137	0.361914	-0.517743	-0.698115	0.294948	0.356476	-0.0840547	0	0.941889	-0.481836	0.0452777	1.36305	0.603577	0.362055	0	0.0445998	0.187769	0.0957374	0.518196	-0.623873	-0.0827753	0.273388	2.09	1.67553	0.00102996	0.899254	1.30153	2.09
160.36	0.275484	-0.0821001	2.14714	0.61216	0.763308	0.0260608	0.348495	-0.516011	-0.698109	0.289627	0.361468	-0.0787381	0	0.947842	-0.472155	0.0561529	1.36522	0.601559	0.367349	0	0.0447654	0.187351	0.0990826	0.513903	-0.615869	-0.0813706	0.27309	2.09	1.67275	-0.00380395	0.892805	1.30339	2.09
160.38	0.276958	-0.0765889	2.16382	0.610082	0.763038	0.0276064	0.335146	-0.514143	-0.69811	0.284728	0.366048	-0.0741343	0	0.953437	-0.462769	0.0667188	1.36713	0.599547	0.372821	0	0.0449546	0.186857	0.102417	0.510167	-0.607602	-0.0791909	0.27295	2.09	1.67014	-0.00913541	0.886771	1.30526	2.09
160.4	0.278373	-0.0712107	2.18031	0.60814	0.762773	0.0290533	0.322197	-0.51224	-0.698125	0.280407	0.370296	-0.069963	0	0.958836	-0.45372	0.0768825	1.36882	0.5975	0.378429	0	0.0452806	0.18623	0.105806	0.507045	-0.598999	-0.0765249	0.272799	2.09	1.66779	-0.0149751	0.881255	1.30712	2.09
160.42	0.279744	-0.0660579	2.19654	0.606342	0.762508	0.0304044	0.30986	-0.510374	-0.698166	0.276738	0.374244	-0.0658267	0	0.964142	-0.445042	0.0865852	1.37034	0.595362	0.38412	0	0.0457874	0.185428	0.109352	0.504545	-0.590017	-0.0737046	0.272499	2.09	1.66573	-0.0212601	0.876289	1.3089	2.09
160.44	0.281047	-0.06111	2.21244	0.604693	0.762246	0.0316615	0.298134	-0.508531	-0.698247	0.273642	0.377845	-0.0613258	0	0.969338	-0.436771	0.0958134	1.37174	0.593068	0.389867	0	0.0464012	0.184438	0.113186	0.502599	-0.580667	-0.0710083	0.271985	2.09	1.66398	-0.0278429	0.871804	1.31053	2.09
160.46	0.282214	-0.0562717	2.22797	0.603193	0.762001	0.0328261	0.286854	-0.506657	-0.698375	0.270945	0.381012	-0.0561283	0	0.974311	-0.428928	0.104574	1.37302	0.590554	0.39567	0	0.0469645	0.183261	0.117457	0.501066	-0.571018	-0.0685829	0.271276	2.09	1.66248	-0.0345285	0.867662	1.31195	2.09
160.48	0.283146	-0.0514086	2.2431	0.60184	0.761793	0.0338995	0.275762	-0.504682	-0.698538	0.268432	0.383656	-0.0500204	0	0.978885	-0.421524	0.112876	1.37418	0.58777	0.401554	0	0.0472717	0.1819	0.122291	0.499782	-0.561174	-0.0663742	0.270456	2.09	1.66116	-0.0411398	0.863698	1.31312	2.09
160.5	0.283741	-0.046423	2.25783	0.600628	0.761635	0.034884	0.264641	-0.502575	-0.698689	0.265949	0.385734	-0.0429308	0	0.982896	-0.41455	0.120708	1.37521	0.584695	0.407532	0	0.0471486	0.180343	0.127755	0.498608	-0.551243	-0.0641044	0.269638	2.09	1.65998	-0.0475822	0.85978	1.31408	2.09
160.52	0.283922	-0.0412771	2.27217	0.599552	0.761539	0.0357842	0.253372	-0.500344	-0.69871	0.26342	0.387271	-0.0349292	0	0.98624	-0.407968	0.128053	1.37607	0.581335	0.413591	0	0.0464894	0.178571	0.133868	0.497452	-0.541329	-0.0613545	0.268947	2.09	1.65892	-0.0538295	0.855817	1.31489	2.09
160.54	0.283665	-0.0360193	2.28609	0.598608	0.761503	0.0366078	0.241994	-0.49804	-0.698399	0.260867	0.388354	-0.0262522	0	0.988916	-0.401719	0.134897	1.37677	0.577736	0.419657	0	0.0453006	0.176558	0.140605	0.496278	-0.531516	-0.0576969	0.268479	2.09	1.65797	-0.0599053	0.851758	1.31559	2.09
160.56	0.283028	-0.0308023	2.29961	0.597795	0.761512	0.037365	0.230757	-0.495753	-0.697459	0.258434	0.38911	-0.017349	0	0.991065	-0.395722	0.14124	1.37729	0.573987	0.425569	0	0.0437385	0.174277	0.1479	0.495125	-0.521836	-0.0528397	0.268259	2.09	1.65715	-0.065881	0.847589	1.31625	2.09
160.58	0.282142	-0.0258313	2.31272	0.59711	0.761543	0.0380695	0.219998	-0.493566	-0.695551	0.256269	0.389673	-0.00873732	0	0.992937	-0.38985	0.14715	1.37764	0.570194	0.431125	0	0.042067	0.171724	0.155668	0.494049	-0.512288	-0.0467793	0.268272	2.09	1.65642	-0.0718036	0.843291	1.31686	2.09
160.6	0.281132	-0.0212208	2.32546	0.596545	0.761579	0.0387333	0.209903	-0.491483	-0.692443	0.254411	0.390129	-0.000803412	0	0.994716	-0.383981	0.152769	1.37783	0.56648	0.436164	0	0.040485	0.168944	0.163813	0.493125	-0.502847	-0.0397815	0.268464	2.09	1.65578	-0.0776852	0.838826	1.31738	2.09
160.62	0.280107	-0.0170132	2.33791	0.596083	0.761606	0.0393678	0.200529	-0.48948	-0.688224	0.252845	0.390523	0.00628623	0	0.996536	-0.377977	0.158298	1.37787	0.562972	0.440557	0	0.0391376	0.166017	0.172206	0.492435	-0.49346	-0.0322726	0.268756	2.09	1.65517	-0.0835254	0.834149	1.31775	2.09
160.64	0.279149	-0.0131979	2.35016	0.595706	0.761614	0.0399839	0.191845	-0.487519	-0.683112	0.251531	0.390878	0.0125555	0	0.998471	-0.37169	0.163962	1.37777	0.559785	0.444206	0	0.0381141	0.163029	0.180696	0.492062	-0.484063	-0.024703	0.269057	2.09	1.65455	-0.0893319	0.829225	1.31792	2.09
160.66	0.278306	-0.00971431	2.36231	0.595393	0.761601	0.0405911	0.183746	-0.485548	-0.677321	0.250407	0.391199	0.0181447	0	1.00054	-0.364999	0.169968	1.37756	0.557001	0.447057	0	0.0374368	0.160068	0.189139	0.492077	-0.474598	-0.0174273	0.269293	2.09	1.65388	-0.0951261	0.824043	1.31788	2.09
160.68	0.277585	-0.00644766	2.37442	0.595127	0.761571	0.0411954	0.176068	-0.483477	-0.671008	0.249385	0.391479	0.0232411	0	1.00269	-0.357855	0.176474	1.37724	0.554666	0.449129	0	0.0370489	0.157223	0.197422	0.49253	-0.46503	-0.0106215	0.269423	2.09	1.65314	-0.100935	0.818632	1.3176	2.09
160.7	0.276975	-0.00325946	2.38653	0.594893	0.761529	0.0417989	0.168636	-0.481203	-0.664277	0.248378	0.391705	0.0280376	0	1.00485	-0.350295	0.183563	1.37684	0.552775	0.450529	0	0.0368518	0.154579	0.205484	0.493435	-0.45536	-0.00427703	0.26945	2.09	1.65232	-0.106772	0.813059	1.31706	2.09
160.72	0.276462	-2.42737e-05	2.39866	0.594684	0.761484	0.0423988	0.161316	-0.478632	-0.657222	0.247337	0.391885	0.0327061	0	1.00696	-0.342448	0.191229	1.37638	0.55127	0.451459	0	0.036752	0.152202	0.213306	0.494772	-0.445615	0.00177832	0.269408	2.09	1.65146	-0.112641	0.807424	1.3162	2.09
160.74	0.276035	0.0033502	2.4108	0.594495	0.76144	0.0429889	0.154022	-0.475701	-0.649962	0.246249	0.392037	0.037386	0	1.00899	-0.334504	0.199375	1.37589	0.55005	0.45221	0	0.0366805	0.150127	0.220916	0.496487	-0.435854	0.00784553	0.269364	2.09	1.6506	-0.118518	0.801833	1.31492	2.09
160.76	0.275689	0.0069016	2.42293	0.594327	0.761399	0.0435614	0.146726	-0.472405	-0.642658	0.245138	0.392189	0.0421734	0	1.01097	-0.326673	0.207828	1.37537	0.548976	0.453124	0	0.0366087	0.148351	0.228363	0.498499	-0.426155	0.0142815	0.269396	2.09	1.64977	-0.124356	0.796361	1.31313	2.09
